<mxfile host="app.diagrams.net" modified="2023-02-03T15:45:22.310Z" agent="5.0 (Windows NT 10.0; Win64; x64) AppleWebKit/537.36 (KHTML, like Gecko) Chrome/109.0.0.0 Safari/537.36 Edg/109.0.1518.70" etag="9BVRCmhq5ljDPvhXSGXk" version="20.8.16" type="github">
  <diagram name="第 1 页" id="F06NM2VTtUtvf9hc3LIS">
    <mxGraphModel dx="2021" dy="1105" grid="1" gridSize="10" guides="1" tooltips="1" connect="1" arrows="1" fold="1" page="1" pageScale="1" pageWidth="827" pageHeight="1169" math="1" shadow="0">
      <root>
        <mxCell id="0" />
        <mxCell id="1" parent="0" />
        <mxCell id="kxeGJRA-98NlILUC69dS-2" value="输出层" style="rounded=0;whiteSpace=wrap;html=1;" vertex="1" parent="1">
          <mxGeometry x="260" y="390" width="120" height="40" as="geometry" />
        </mxCell>
        <mxCell id="kxeGJRA-98NlILUC69dS-7" value="" style="edgeStyle=orthogonalEdgeStyle;rounded=0;orthogonalLoop=1;jettySize=auto;html=1;" edge="1" parent="1" source="kxeGJRA-98NlILUC69dS-3" target="kxeGJRA-98NlILUC69dS-2">
          <mxGeometry relative="1" as="geometry" />
        </mxCell>
        <mxCell id="kxeGJRA-98NlILUC69dS-11" style="edgeStyle=orthogonalEdgeStyle;curved=1;rounded=0;orthogonalLoop=1;jettySize=auto;html=1;exitX=0.5;exitY=0;exitDx=0;exitDy=0;entryX=0.5;entryY=0;entryDx=0;entryDy=0;" edge="1" parent="1" source="kxeGJRA-98NlILUC69dS-3" target="kxeGJRA-98NlILUC69dS-8">
          <mxGeometry relative="1" as="geometry">
            <Array as="points">
              <mxPoint x="320" y="450" />
              <mxPoint x="530" y="450" />
            </Array>
          </mxGeometry>
        </mxCell>
        <mxCell id="kxeGJRA-98NlILUC69dS-3" value="隐藏层" style="rounded=0;whiteSpace=wrap;html=1;" vertex="1" parent="1">
          <mxGeometry x="260" y="490" width="120" height="40" as="geometry" />
        </mxCell>
        <mxCell id="kxeGJRA-98NlILUC69dS-6" value="" style="edgeStyle=orthogonalEdgeStyle;rounded=0;orthogonalLoop=1;jettySize=auto;html=1;" edge="1" parent="1" source="kxeGJRA-98NlILUC69dS-4" target="kxeGJRA-98NlILUC69dS-3">
          <mxGeometry relative="1" as="geometry" />
        </mxCell>
        <mxCell id="kxeGJRA-98NlILUC69dS-4" value="输入层" style="rounded=0;whiteSpace=wrap;html=1;" vertex="1" parent="1">
          <mxGeometry x="260" y="590" width="120" height="40" as="geometry" />
        </mxCell>
        <mxCell id="kxeGJRA-98NlILUC69dS-14" style="edgeStyle=orthogonalEdgeStyle;curved=1;rounded=0;orthogonalLoop=1;jettySize=auto;html=1;exitX=0.5;exitY=1;exitDx=0;exitDy=0;entryX=0.5;entryY=1;entryDx=0;entryDy=0;" edge="1" parent="1" source="kxeGJRA-98NlILUC69dS-8" target="kxeGJRA-98NlILUC69dS-3">
          <mxGeometry relative="1" as="geometry">
            <mxPoint x="320" y="540" as="targetPoint" />
            <Array as="points">
              <mxPoint x="530" y="570" />
              <mxPoint x="320" y="570" />
            </Array>
          </mxGeometry>
        </mxCell>
        <mxCell id="kxeGJRA-98NlILUC69dS-8" value="延时器" style="rounded=0;whiteSpace=wrap;html=1;" vertex="1" parent="1">
          <mxGeometry x="470" y="490" width="120" height="40" as="geometry" />
        </mxCell>
        <mxCell id="kxeGJRA-98NlILUC69dS-15" value="&lt;svg style=&quot;vertical-align: -0.357ex;&quot; xmlns:xlink=&quot;http://www.w3.org/1999/xlink&quot; viewBox=&quot;0 -694 914.3 851.8&quot; role=&quot;img&quot; height=&quot;1.927ex&quot; width=&quot;2.068ex&quot; xmlns=&quot;http://www.w3.org/2000/svg&quot;&gt;&lt;defs&gt;&lt;path d=&quot;M137 683Q138 683 209 688T282 694Q294 694 294 685Q294 674 258 534Q220 386 220 383Q220 381 227 388Q288 442 357 442Q411 442 444 415T478 336Q478 285 440 178T402 50Q403 36 407 31T422 26Q450 26 474 56T513 138Q516 149 519 151T535 153Q555 153 555 145Q555 144 551 130Q535 71 500 33Q466 -10 419 -10H414Q367 -10 346 17T325 74Q325 90 361 192T398 345Q398 404 354 404H349Q266 404 205 306L198 293L164 158Q132 28 127 16Q114 -11 83 -11Q69 -11 59 -2T48 16Q48 30 121 320L195 616Q195 629 188 632T149 637H128Q122 643 122 645T124 664Q129 683 137 683Z&quot; id=&quot;MJX-2-TEX-I-210E&quot;&gt;&lt;/path&gt;&lt;path d=&quot;M26 385Q19 392 19 395Q19 399 22 411T27 425Q29 430 36 430T87 431H140L159 511Q162 522 166 540T173 566T179 586T187 603T197 615T211 624T229 626Q247 625 254 615T261 596Q261 589 252 549T232 470L222 433Q222 431 272 431H323Q330 424 330 420Q330 398 317 385H210L174 240Q135 80 135 68Q135 26 162 26Q197 26 230 60T283 144Q285 150 288 151T303 153H307Q322 153 322 145Q322 142 319 133Q314 117 301 95T267 48T216 6T155 -11Q125 -11 98 4T59 56Q57 64 57 83V101L92 241Q127 382 128 383Q128 385 77 385H26Z&quot; id=&quot;MJX-2-TEX-I-1D461&quot;&gt;&lt;/path&gt;&lt;/defs&gt;&lt;g transform=&quot;scale(1,-1)&quot; stroke-width=&quot;0&quot; fill=&quot;currentColor&quot; stroke=&quot;currentColor&quot;&gt;&lt;g data-mml-node=&quot;math&quot;&gt;&lt;g data-mml-node=&quot;msub&quot;&gt;&lt;g data-mml-node=&quot;mi&quot;&gt;&lt;use xlink:href=&quot;#MJX-2-TEX-I-210E&quot; data-c=&quot;210E&quot;&gt;&lt;/use&gt;&lt;/g&gt;&lt;g transform=&quot;translate(609,-150) scale(0.707)&quot; data-mml-node=&quot;mi&quot;&gt;&lt;use xlink:href=&quot;#MJX-2-TEX-I-1D461&quot; data-c=&quot;1D461&quot;&gt;&lt;/use&gt;&lt;/g&gt;&lt;/g&gt;&lt;/g&gt;&lt;/g&gt;&lt;/svg&gt;" style="text;html=1;align=center;verticalAlign=middle;resizable=0;points=[];autosize=1;strokeColor=none;fillColor=none;" vertex="1" parent="1">
          <mxGeometry x="280" y="450" width="40" height="30" as="geometry" />
        </mxCell>
        <mxCell id="kxeGJRA-98NlILUC69dS-18" value="$$x_t$$" style="text;html=1;align=center;verticalAlign=middle;resizable=0;points=[];autosize=1;strokeColor=none;fillColor=none;" vertex="1" parent="1">
          <mxGeometry x="265" y="550" width="70" height="30" as="geometry" />
        </mxCell>
        <mxCell id="kxeGJRA-98NlILUC69dS-19" value="&lt;svg style=&quot;vertical-align: -0.357ex;&quot; xmlns:xlink=&quot;http://www.w3.org/1999/xlink&quot; viewBox=&quot;0 -694 914.3 851.8&quot; role=&quot;img&quot; height=&quot;1.927ex&quot; width=&quot;2.068ex&quot; xmlns=&quot;http://www.w3.org/2000/svg&quot;&gt;&lt;defs&gt;&lt;path d=&quot;M137 683Q138 683 209 688T282 694Q294 694 294 685Q294 674 258 534Q220 386 220 383Q220 381 227 388Q288 442 357 442Q411 442 444 415T478 336Q478 285 440 178T402 50Q403 36 407 31T422 26Q450 26 474 56T513 138Q516 149 519 151T535 153Q555 153 555 145Q555 144 551 130Q535 71 500 33Q466 -10 419 -10H414Q367 -10 346 17T325 74Q325 90 361 192T398 345Q398 404 354 404H349Q266 404 205 306L198 293L164 158Q132 28 127 16Q114 -11 83 -11Q69 -11 59 -2T48 16Q48 30 121 320L195 616Q195 629 188 632T149 637H128Q122 643 122 645T124 664Q129 683 137 683Z&quot; id=&quot;MJX-2-TEX-I-210E&quot;&gt;&lt;/path&gt;&lt;path d=&quot;M26 385Q19 392 19 395Q19 399 22 411T27 425Q29 430 36 430T87 431H140L159 511Q162 522 166 540T173 566T179 586T187 603T197 615T211 624T229 626Q247 625 254 615T261 596Q261 589 252 549T232 470L222 433Q222 431 272 431H323Q330 424 330 420Q330 398 317 385H210L174 240Q135 80 135 68Q135 26 162 26Q197 26 230 60T283 144Q285 150 288 151T303 153H307Q322 153 322 145Q322 142 319 133Q314 117 301 95T267 48T216 6T155 -11Q125 -11 98 4T59 56Q57 64 57 83V101L92 241Q127 382 128 383Q128 385 77 385H26Z&quot; id=&quot;MJX-2-TEX-I-1D461&quot;&gt;&lt;/path&gt;&lt;/defs&gt;&lt;g transform=&quot;scale(1,-1)&quot; stroke-width=&quot;0&quot; fill=&quot;currentColor&quot; stroke=&quot;currentColor&quot;&gt;&lt;g data-mml-node=&quot;math&quot;&gt;&lt;g data-mml-node=&quot;msub&quot;&gt;&lt;g data-mml-node=&quot;mi&quot;&gt;&lt;use xlink:href=&quot;#MJX-2-TEX-I-210E&quot; data-c=&quot;210E&quot;&gt;&lt;/use&gt;&lt;/g&gt;&lt;g transform=&quot;translate(609,-150) scale(0.707)&quot; data-mml-node=&quot;mi&quot;&gt;&lt;use xlink:href=&quot;#MJX-2-TEX-I-1D461&quot; data-c=&quot;1D461&quot;&gt;&lt;/use&gt;&lt;/g&gt;&lt;/g&gt;&lt;/g&gt;&lt;/g&gt;&lt;/svg&gt;" style="text;html=1;align=center;verticalAlign=middle;resizable=0;points=[];autosize=1;strokeColor=none;fillColor=none;" vertex="1" parent="1">
          <mxGeometry x="410" y="420" width="40" height="30" as="geometry" />
        </mxCell>
        <mxCell id="kxeGJRA-98NlILUC69dS-21" value="$$h_{t-1}$$" style="text;html=1;align=center;verticalAlign=middle;resizable=0;points=[];autosize=1;strokeColor=none;fillColor=none;" vertex="1" parent="1">
          <mxGeometry x="385" y="570" width="90" height="30" as="geometry" />
        </mxCell>
        <mxCell id="kxeGJRA-98NlILUC69dS-22" value="" style="rounded=0;whiteSpace=wrap;html=1;" vertex="1" parent="1">
          <mxGeometry x="720" y="390" width="120" height="40" as="geometry" />
        </mxCell>
        <mxCell id="kxeGJRA-98NlILUC69dS-25" value="" style="edgeStyle=orthogonalEdgeStyle;curved=1;rounded=0;orthogonalLoop=1;jettySize=auto;html=1;" edge="1" parent="1" source="kxeGJRA-98NlILUC69dS-23" target="kxeGJRA-98NlILUC69dS-22">
          <mxGeometry relative="1" as="geometry" />
        </mxCell>
        <mxCell id="kxeGJRA-98NlILUC69dS-23" value="" style="rounded=0;whiteSpace=wrap;html=1;" vertex="1" parent="1">
          <mxGeometry x="720" y="490" width="120" height="40" as="geometry" />
        </mxCell>
        <mxCell id="kxeGJRA-98NlILUC69dS-26" value="" style="edgeStyle=orthogonalEdgeStyle;curved=1;rounded=0;orthogonalLoop=1;jettySize=auto;html=1;" edge="1" parent="1" source="kxeGJRA-98NlILUC69dS-24" target="kxeGJRA-98NlILUC69dS-23">
          <mxGeometry relative="1" as="geometry" />
        </mxCell>
        <mxCell id="kxeGJRA-98NlILUC69dS-24" value="" style="rounded=0;whiteSpace=wrap;html=1;" vertex="1" parent="1">
          <mxGeometry x="720" y="590" width="120" height="40" as="geometry" />
        </mxCell>
        <mxCell id="kxeGJRA-98NlILUC69dS-27" value="" style="endArrow=classic;html=1;rounded=0;curved=1;" edge="1" parent="1">
          <mxGeometry width="50" height="50" relative="1" as="geometry">
            <mxPoint x="610" y="510" as="sourcePoint" />
            <mxPoint x="700" y="510" as="targetPoint" />
          </mxGeometry>
        </mxCell>
        <mxCell id="kxeGJRA-98NlILUC69dS-28" value="展开形式" style="text;html=1;align=center;verticalAlign=middle;resizable=0;points=[];autosize=1;strokeColor=none;fillColor=none;" vertex="1" parent="1">
          <mxGeometry x="615" y="535" width="70" height="30" as="geometry" />
        </mxCell>
        <mxCell id="kxeGJRA-98NlILUC69dS-29" value="$$x_1$$" style="text;html=1;align=center;verticalAlign=middle;resizable=0;points=[];autosize=1;strokeColor=none;fillColor=none;" vertex="1" parent="1">
          <mxGeometry x="745" y="595" width="70" height="30" as="geometry" />
        </mxCell>
        <mxCell id="kxeGJRA-98NlILUC69dS-30" value="$$h_1$$" style="text;html=1;align=center;verticalAlign=middle;resizable=0;points=[];autosize=1;strokeColor=none;fillColor=none;" vertex="1" parent="1">
          <mxGeometry x="745" y="495" width="70" height="30" as="geometry" />
        </mxCell>
        <mxCell id="kxeGJRA-98NlILUC69dS-31" value="$$y_1$$" style="text;html=1;align=center;verticalAlign=middle;resizable=0;points=[];autosize=1;strokeColor=none;fillColor=none;" vertex="1" parent="1">
          <mxGeometry x="745" y="395" width="70" height="30" as="geometry" />
        </mxCell>
        <mxCell id="kxeGJRA-98NlILUC69dS-33" value="" style="endArrow=classic;html=1;rounded=0;curved=1;exitX=1;exitY=0.5;exitDx=0;exitDy=0;" edge="1" parent="1" source="kxeGJRA-98NlILUC69dS-23">
          <mxGeometry width="50" height="50" relative="1" as="geometry">
            <mxPoint x="410" y="600" as="sourcePoint" />
            <mxPoint x="880" y="510" as="targetPoint" />
          </mxGeometry>
        </mxCell>
        <mxCell id="kxeGJRA-98NlILUC69dS-34" value="" style="rounded=0;whiteSpace=wrap;html=1;" vertex="1" parent="1">
          <mxGeometry x="880" y="390" width="120" height="40" as="geometry" />
        </mxCell>
        <mxCell id="kxeGJRA-98NlILUC69dS-35" value="" style="edgeStyle=orthogonalEdgeStyle;curved=1;rounded=0;orthogonalLoop=1;jettySize=auto;html=1;" edge="1" parent="1" source="kxeGJRA-98NlILUC69dS-36" target="kxeGJRA-98NlILUC69dS-34">
          <mxGeometry relative="1" as="geometry" />
        </mxCell>
        <mxCell id="kxeGJRA-98NlILUC69dS-36" value="" style="rounded=0;whiteSpace=wrap;html=1;" vertex="1" parent="1">
          <mxGeometry x="880" y="490" width="120" height="40" as="geometry" />
        </mxCell>
        <mxCell id="kxeGJRA-98NlILUC69dS-37" value="" style="edgeStyle=orthogonalEdgeStyle;curved=1;rounded=0;orthogonalLoop=1;jettySize=auto;html=1;" edge="1" parent="1" source="kxeGJRA-98NlILUC69dS-38" target="kxeGJRA-98NlILUC69dS-36">
          <mxGeometry relative="1" as="geometry" />
        </mxCell>
        <mxCell id="kxeGJRA-98NlILUC69dS-38" value="" style="rounded=0;whiteSpace=wrap;html=1;" vertex="1" parent="1">
          <mxGeometry x="880" y="590" width="120" height="40" as="geometry" />
        </mxCell>
        <mxCell id="kxeGJRA-98NlILUC69dS-39" value="$$x_2$$" style="text;html=1;align=center;verticalAlign=middle;resizable=0;points=[];autosize=1;strokeColor=none;fillColor=none;" vertex="1" parent="1">
          <mxGeometry x="905" y="595" width="70" height="30" as="geometry" />
        </mxCell>
        <mxCell id="kxeGJRA-98NlILUC69dS-40" value="$$h_2$$" style="text;html=1;align=center;verticalAlign=middle;resizable=0;points=[];autosize=1;strokeColor=none;fillColor=none;" vertex="1" parent="1">
          <mxGeometry x="905" y="495" width="70" height="30" as="geometry" />
        </mxCell>
        <mxCell id="kxeGJRA-98NlILUC69dS-41" value="$$y_2$$" style="text;html=1;align=center;verticalAlign=middle;resizable=0;points=[];autosize=1;strokeColor=none;fillColor=none;" vertex="1" parent="1">
          <mxGeometry x="905" y="395" width="70" height="30" as="geometry" />
        </mxCell>
        <mxCell id="kxeGJRA-98NlILUC69dS-42" value="" style="endArrow=classic;html=1;rounded=0;curved=1;exitX=1;exitY=0.5;exitDx=0;exitDy=0;" edge="1" parent="1" source="kxeGJRA-98NlILUC69dS-36">
          <mxGeometry width="50" height="50" relative="1" as="geometry">
            <mxPoint x="570" y="600" as="sourcePoint" />
            <mxPoint x="1040" y="510" as="targetPoint" />
          </mxGeometry>
        </mxCell>
        <mxCell id="kxeGJRA-98NlILUC69dS-43" value="&lt;b&gt;&lt;font style=&quot;font-size: 20px;&quot;&gt;...&lt;/font&gt;&lt;/b&gt;" style="text;html=1;align=center;verticalAlign=middle;resizable=0;points=[];autosize=1;strokeColor=none;fillColor=none;" vertex="1" parent="1">
          <mxGeometry x="1050" y="390" width="40" height="40" as="geometry" />
        </mxCell>
        <mxCell id="kxeGJRA-98NlILUC69dS-44" value="&lt;b&gt;&lt;font style=&quot;font-size: 20px;&quot;&gt;...&lt;/font&gt;&lt;/b&gt;" style="text;html=1;align=center;verticalAlign=middle;resizable=0;points=[];autosize=1;strokeColor=none;fillColor=none;" vertex="1" parent="1">
          <mxGeometry x="1050" y="485" width="40" height="40" as="geometry" />
        </mxCell>
        <mxCell id="kxeGJRA-98NlILUC69dS-45" value="&lt;b&gt;&lt;font style=&quot;font-size: 20px;&quot;&gt;...&lt;/font&gt;&lt;/b&gt;" style="text;html=1;align=center;verticalAlign=middle;resizable=0;points=[];autosize=1;strokeColor=none;fillColor=none;" vertex="1" parent="1">
          <mxGeometry x="1050" y="580" width="40" height="40" as="geometry" />
        </mxCell>
        <mxCell id="kxeGJRA-98NlILUC69dS-47" value="" style="rounded=0;whiteSpace=wrap;html=1;" vertex="1" parent="1">
          <mxGeometry x="1150" y="390" width="120" height="40" as="geometry" />
        </mxCell>
        <mxCell id="kxeGJRA-98NlILUC69dS-48" value="" style="edgeStyle=orthogonalEdgeStyle;curved=1;rounded=0;orthogonalLoop=1;jettySize=auto;html=1;" edge="1" parent="1" source="kxeGJRA-98NlILUC69dS-49" target="kxeGJRA-98NlILUC69dS-47">
          <mxGeometry relative="1" as="geometry" />
        </mxCell>
        <mxCell id="kxeGJRA-98NlILUC69dS-49" value="" style="rounded=0;whiteSpace=wrap;html=1;" vertex="1" parent="1">
          <mxGeometry x="1150" y="490" width="120" height="40" as="geometry" />
        </mxCell>
        <mxCell id="kxeGJRA-98NlILUC69dS-50" value="" style="edgeStyle=orthogonalEdgeStyle;curved=1;rounded=0;orthogonalLoop=1;jettySize=auto;html=1;" edge="1" parent="1" source="kxeGJRA-98NlILUC69dS-51" target="kxeGJRA-98NlILUC69dS-49">
          <mxGeometry relative="1" as="geometry" />
        </mxCell>
        <mxCell id="kxeGJRA-98NlILUC69dS-51" value="" style="rounded=0;whiteSpace=wrap;html=1;" vertex="1" parent="1">
          <mxGeometry x="1150" y="590" width="120" height="40" as="geometry" />
        </mxCell>
        <mxCell id="kxeGJRA-98NlILUC69dS-52" value="$$x_T$$" style="text;html=1;align=center;verticalAlign=middle;resizable=0;points=[];autosize=1;strokeColor=none;fillColor=none;" vertex="1" parent="1">
          <mxGeometry x="1175" y="595" width="70" height="30" as="geometry" />
        </mxCell>
        <mxCell id="kxeGJRA-98NlILUC69dS-53" value="$$h_T$$" style="text;html=1;align=center;verticalAlign=middle;resizable=0;points=[];autosize=1;strokeColor=none;fillColor=none;" vertex="1" parent="1">
          <mxGeometry x="1175" y="495" width="70" height="30" as="geometry" />
        </mxCell>
        <mxCell id="kxeGJRA-98NlILUC69dS-54" value="$$y_T$$" style="text;html=1;align=center;verticalAlign=middle;resizable=0;points=[];autosize=1;strokeColor=none;fillColor=none;" vertex="1" parent="1">
          <mxGeometry x="1175" y="395" width="70" height="30" as="geometry" />
        </mxCell>
        <mxCell id="kxeGJRA-98NlILUC69dS-56" value="" style="endArrow=classic;html=1;rounded=0;fontSize=20;curved=1;entryX=0;entryY=0.5;entryDx=0;entryDy=0;" edge="1" parent="1" target="kxeGJRA-98NlILUC69dS-49">
          <mxGeometry width="50" height="50" relative="1" as="geometry">
            <mxPoint x="1110" y="510" as="sourcePoint" />
            <mxPoint x="750" y="500" as="targetPoint" />
          </mxGeometry>
        </mxCell>
      </root>
    </mxGraphModel>
  </diagram>
</mxfile>
